<svg xmlns="http://www.w3.org/2000/svg" width="69.007" height="36.883" viewBox="0 0 69.007 36.883">
  <g id="cowboy-hat" transform="translate(-3 -17)">
    <path id="Path_2" data-name="Path 2" d="M21.571,40.59a53.7,53.7,0,0,0,12.577-.083l4.464-.558A68.743,68.743,0,0,0,54.2,36.106a1.2,1.2,0,0,0,.757-1.3l-.261-1.65-10.878,2.9a49.471,49.471,0,0,1-12.745,1.672,49.418,49.418,0,0,1-13.588-1.9l-1.011-.289c-.039.169-.094.332-.128.5l-.283,1.419a7.991,7.991,0,0,0,5.505,3.131Z" transform="translate(2.48 3.066)"/>
    <path id="Path_3" data-name="Path 3" d="M43.034,36.826l11.118-2.965-2-12.659a3.554,3.554,0,0,0-3.526-3.013H46.746a46.936,46.936,0,0,0-9.192.91l-2.565.513a49.376,49.376,0,0,1-9.659.957V18.19c1.522,0,3.048-.075,4.566-.224l-1.736-.694A3.8,3.8,0,0,0,22.95,20.8,18.931,18.931,0,0,1,19.4,31.864l-.238.333a17.822,17.822,0,0,0-2.175,4.127l.974.278a47.285,47.285,0,0,0,25.067.224Z" transform="translate(2.655)"/>
    <path id="Path_4" data-name="Path 4" d="M71.751,37.623l-1.067-.458a55.558,55.558,0,0,0-11.064-3.4l.171,1.083a3.582,3.582,0,0,1-2.27,3.9,71.173,71.173,0,0,1-16.133,3.974l-4.464.558a55.85,55.85,0,0,1-6.936.432,56.068,56.068,0,0,1-6.175-.341A10.386,10.386,0,0,1,16.289,38.8a1.191,1.191,0,0,1-.176-.894l.384-1.923a20.358,20.358,0,0,1,1.261-4.052l-6.025-.86A7.165,7.165,0,0,0,10.751,31H9.934a6.885,6.885,0,0,0-4.9,2.031A6.982,6.982,0,0,0,3,37.934v1.6a6.982,6.982,0,0,0,2.031,4.9,23.028,23.028,0,0,0,16.393,6.79A60.468,60.468,0,0,0,47.013,45.5L48.088,45a62.565,62.565,0,0,1,14.35-4.733l9.233-1.847a.418.418,0,0,0,.081-.8Z" transform="translate(0 2.657)"/>
  </g>
</svg>
